:SAMPLES-PER-SECOND 24
:FULLY-SPECIFIED
:DEGREES
40
root  -6.63113 41.0264 34.9672 -15.2303 13.1002 -20.4876
RightUpLeg  -16.7578 0.779004 -10.6921
RightLeg  17.5271 -14.1967 -5.10062
RightFoot  -9.7906 -0.0916594 1.86471
RightToes  -2.08645e-008 3.77894e-005 6.81332e-007
Spine  -2.7838 -2.63342 -3.2763
Spine1  9.92892 -6.23834 12.2174
HEad  -18.969 0.276831 3.29374
LeftShoulder1  6.97296 -12.7351 -36.8746
LeftArm  16.8608 21.9213 -31.5987
LeftForeArm  167.073 -70.4662 -152.336
LeftHand  -0.387146 -4.39092 4.87871
RightShoulder  3.90303 6.49451 33.1536
RightArm  4.366 -41.5504 22.255
RightForeArm  162.432 72.2324 148.804
RightHand  -0.380092 7.79254 -3.68359
LeftUpLeg  1.10317 12.2884 9.56553
LeftLeg  13.9887 37.6794 4.25423
LeftFoot  -2.29941 -0.117126 1.65684
LeftToes  1.24767e-006 1.47042e-008 1.32732e-009
41
root  -6.53628 41.3273 34.6276 -10.6708 8.77826 -16.5107
RightUpLeg  -11.8694 -2.91579 -4.59227
RightLeg  20.8963 -12.1496 -5.28472
RightFoot  -9.44642 -0.118968 3.35102
RightToes  -2.08645e-008 3.77894e-005 6.81332e-007
Spine  -6.34597 -2.54265 -3.9257
Spine1  10.6061 -5.77885 11.1224
HEad  -19.4795 3.38032 2.07722
LeftShoulder1  6.99717 -12.7805 -36.9036
LeftArm  15.2601 27.4789 -30.8656
LeftForeArm  165.633 -69.737 -153.173
LeftHand  -0.335681 -4.26569 4.31644
RightShoulder  3.83788 6.47035 32.5945
RightArm  11.3155 -37.7134 21.5191
RightForeArm  161.872 73.1627 146.982
RightHand  -0.343968 8.12896 -3.32641
LeftUpLeg  -1.50965 15.2501 6.71419
LeftLeg  13.4007 30.4293 1.98925
LeftFoot  1.3125 -0.114444 0.945389
LeftToes  1.24767e-006 1.47042e-008 1.32732e-009
42
root  -6.57359 41.2349 34.1439 -7.21442 5.67041 -13.9552
RightUpLeg  -7.1534 -8.49139 0.417535
RightLeg  26.1533 -9.71868 -5.37485
RightFoot  -8.63552 -0.180279 5.14408
RightToes  -2.08645e-008 3.77894e-005 6.81332e-007
Spine  -7.30474 -2.4332 -3.09412
Spine1  9.36278 -4.85559 9.06115
HEad  -21.1315 5.11532 2.33996
LeftShoulder1  6.72811 -12.6215 -35.6897
LeftArm  14.9906 30.1979 -30.2621
LeftForeArm  165.582 -69.2537 -153.813
LeftHand  -0.363761 -3.98852 4.77495
RightShoulder  3.83005 6.48834 32.4461
RightArm  15.7968 -34.6151 22.1794
RightForeArm  162.271 73.2224 146.925
RightHand  -0.439313 8.48915 -4.04726
LeftUpLeg  -6.1104 19.2107 3.32716
LeftLeg  16.6288 7.69063 1.9627
LeftFoot  3.20063 -0.022461 0.0235299
LeftToes  1.24767e-006 1.47042e-008 1.32732e-009
43
root  -6.58563 40.5639 33.5878 -3.25769 1.64432 -10.8377
RightUpLeg  -5.18272 -11.4098 2.59794
RightLeg  34.056 -5.83124 -4.47154
RightFoot  -8.02768 -0.313852 9.05503
RightToes  -2.08645e-008 3.77894e-005 6.81332e-007
Spine  -8.27058 -1.58752 -1.00529
Spine1  8.08802 -2.78204 4.96441
HEad  -24.6141 5.95132 2.10416
LeftShoulder1  6.46904 -12.4938 -34.4271
LeftArm  15.0796 30.4663 -28.9542
LeftForeArm  165.9 -68.1862 -155.175
LeftHand  -0.377495 -3.65303 5.10491
RightShoulder  3.71167 6.37077 31.7003
RightArm  17.7415 -32.0523 25.0196
RightForeArm  162.586 72.8845 147.637
RightHand  -0.269759 8.75653 -2.59654
LeftUpLeg  -12.1271 10.2689 -0.144357
LeftLeg  21.9712 1.621 1.17025
LeftFoot  1.20874 -0.0310505 0.235138
LeftToes  1.24767e-006 1.47042e-008 1.32732e-009
44
root  -6.55652 39.7151 32.7944 1.23392 -4.86514 -6.72785
RightUpLeg  -3.83515 -10.9177 2.34671
RightLeg  37.676 -3.38705 -3.09309
RightFoot  -10.5652 -0.137309 11.5594
RightToes  -2.08645e-008 3.77894e-005 6.81332e-007
Spine  -8.79251 0.353934 -0.254587
Spine1  6.62492 0.166254 0.790992
HEad  -28.9781 6.96534 0.534443
LeftShoulder1  6.63462 -12.678 -34.981
LeftArm  14.0746 28.7415 -26.1208
LeftForeArm  164.189 -66.8 -156.549
LeftHand  -0.348275 -3.0695 5.02033
RightShoulder  3.73261 6.42056 31.7198
RightArm  18.7474 -28.0732 27.4713
RightForeArm  161.713 72.7495 147.787
RightHand  -0.295958 8.8189 -2.8009
LeftUpLeg  -19.5256 11.2624 -5.52377
LeftLeg  25.1557 4.73623 2.76408
LeftFoot  -0.597366 -0.272064 2.9171
LeftToes  1.24767e-006 1.47042e-008 1.32732e-009
45
root  -6.42213 38.8729 31.6908 4.47443 -13.3223 -3.94884
RightUpLeg  -1.79039 -9.16369 1.39185
RightLeg  33.8252 -3.19386 -2.55156
RightFoot  -18.3853 0.36906 8.28259
RightToes  -2.08645e-008 3.77894e-005 6.81332e-007
Spine  -6.329 2.83036 1.15593
Spine1  4.2058 3.30956 -2.65024
HEad  -33.3398 8.63852 -1.77135
LeftShoulder1  7.21834 -13.1638 -37.2245
LeftArm  11.5745 24.729 -22.7155
LeftForeArm  162.235 -67.6077 -155.438
LeftHand  -0.440061 -2.66716 6.55898
RightShoulder  3.95378 6.7008 32.8584
RightArm  19.4879 -21.0278 28.7656
RightForeArm  156.748 74.5277 143.17
RightHand  -0.535081 8.76678 -4.75763
LeftUpLeg  -26.8077 19.5606 -11.2314
LeftLeg  26.1123 7.28047 4.2069
LeftFoot  -2.72649 -0.434926 6.02369
LeftToes  1.24767e-006 1.47042e-008 1.32732e-009
46
root  -6.04665 38.2415 30.445 6.12247 -21.7002 -2.48601
RightUpLeg  -3.29147 -5.32255 0.129039
RightLeg  29.9399 -3.47906 -2.39946
RightFoot  -25.2673 0.28587 3.74344
RightToes  -2.08645e-008 3.77894e-005 6.81332e-007
Spine  -2.45252 4.50784 3.50964
Spine1  2.91829 5.58271 -5.95088
HEad  -37.8496 10.8783 -4.62798
LeftShoulder1  7.81833 -13.6599 -39.3807
LeftArm  8.27776 19.8936 -20.8495
LeftForeArm  159.139 -71.0111 -150.401
LeftHand  -0.645182 -2.00324 10.3199
RightShoulder  4.02257 6.79877 33.1587
RightArm  19.6201 -12.5441 31.6192
RightForeArm  144.159 78.0462 128.809
RightHand  -0.489775 9.00775 -4.32846
LeftUpLeg  -32.1814 24.2687 -14.9553
LeftLeg  25.9246 9.28956 5.22235
LeftFoot  -3.89235 -0.546775 8.74147
LeftToes  1.24767e-006 1.47042e-008 1.32732e-009
47
root  -5.48931 38.3738 29.3608 6.64648 -27.2933 -1.74415
RightUpLeg  -7.12746 0.443447 -0.673467
RightLeg  29.4731 -4.74604 -3.1195
RightFoot  -24.1295 0.0771173 2.12655
RightToes  -2.08645e-008 3.77894e-005 6.81332e-007
Spine  0.609565 4.12957 5.87339
Spine1  2.7007 5.75778 -8.52671
HEad  -40.6483 13.7631 -7.0085
LeftShoulder1  7.99533 -13.8072 -39.984
LeftArm  6.28689 18.3072 -21.4739
LeftForeArm  153.176 -73.1869 -145.559
LeftHand  -0.687794 -0.602432 13.4175
RightShoulder  4.10221 6.89261 33.5695
RightArm  20.0581 -8.33035 34.2692
RightForeArm  134.619 79.4938 117.984
RightHand  -0.378965 9.81991 -3.28016
LeftUpLeg  -33.5421 25.3181 -16.0968
LeftLeg  22.1284 13.6365 5.93912
LeftFoot  0.334928 -1.05709 10.2642
LeftToes  1.24767e-006 1.47042e-008 1.32732e-009
48
root  -4.9957 39.4138 28.6317 7.29269 -28.8125 -1.98114
RightUpLeg  -7.55004 2.8903 -0.800624
RightLeg  24.89 -4.85804 -2.63569
RightFoot  -16.7833 0.00305263 2.45195
RightToes  -2.08645e-008 3.77894e-005 6.81332e-007
Spine  0.80957 2.70295 5.85307
Spine1  3.12226 3.75523 -5.90944
HEad  -39.7132 16.2264 -8.27114
LeftShoulder1  7.79139 -13.6371 -39.2862
LeftArm  6.93115 20.687 -25.2419
LeftForeArm  151.863 -72.3003 -147.057
LeftHand  -0.641904 -0.329226 13.1082
RightShoulder  3.93003 6.72052 32.5518
RightArm  20.8081 -12.1822 35.4149
RightForeArm  143.991 77.7037 130.088
RightHand  -0.461369 9.6674 -3.94311
LeftUpLeg  -28.456 17.7255 -9.05916
LeftLeg  12.4466 20.8844 -0.795602
LeftFoot  8.60899 -0.584726 3.39822
LeftToes  1.24767e-006 1.47042e-008 1.32732e-009
49
root  -4.65991 40.5921 28.1188 8.81024 -28.7038 -2.11383
RightUpLeg  -5.92389 0.197327 -1.30357
RightLeg  15.0023 -0.846671 -0.91801
RightFoot  -9.03411 -0.174256 5.14901
RightToes  -2.08645e-008 3.77894e-005 6.81332e-007
Spine  -0.856227 1.49821 3.70601
Spine1  2.36102 1.39398 -0.992159
HEad  -36.0776 17.6795 -7.57554
LeftShoulder1  7.5308 -13.4323 -38.3439
LeftArm  9.52676 24.4291 -28.7067
LeftForeArm  159.437 -69.6419 -152.481
LeftHand  -0.554835 -1.75862 9.22185
RightShoulder  3.85685 6.61753 32.2216
RightArm  21.5674 -20.4555 32.8459
RightForeArm  154.108 73.573 144.79
RightHand  -0.472392 9.27312 -4.12294
LeftUpLeg  -23.834 7.69696 -0.90871
LeftLeg  4.38355 16.9063 -7.26444
LeftFoot  13.7293 3.10682 -14.1372
LeftToes  1.24767e-006 1.47042e-008 1.32732e-009
50
root  -4.32756 41.2462 27.5151 9.62292 -30.5416 -1.36499
RightUpLeg  -7.19357 -1.88545 -2.68278
RightLeg  11.8661 1.26162 -0.486938
RightFoot  -4.38921 -0.502567 7.7687
RightToes  -2.08645e-008 3.77894e-005 6.81332e-007
Spine  -2.07715 1.13856 1.82104
Spine1  1.90484 0.599734 1.37233
HEad  -33.8545 18.6104 -6.43786
LeftShoulder1  7.42296 -13.3964 -37.8208
LeftArm  11.9114 25.6635 -29.3726
LeftForeArm  168.349 -66.4103 -157.423
LeftHand  -0.334693 -2.93615 4.89941
RightShoulder  4.04949 6.79219 33.4444
RightArm  21.4496 -26.8514 28.5097
RightForeArm  159.355 69.9108 152.079
RightHand  -0.330603 9.6903 -2.93986
LeftUpLeg  -23.8891 9.40488 -0.163861
LeftLeg  8.36155 -0.378636 -5.27624
LeftFoot  11.3755 4.79283 -23.9015
LeftToes  1.24767e-006 1.47042e-008 1.32732e-009
51
root  -3.86498 41.3437 26.7655 8.20233 -34.6406 -1.01055
RightUpLeg  -10.205 1.33057 -3.82536
RightLeg  20.1665 -4.15802 -1.9846
RightFoot  -3.00713 -0.538604 7.08157
RightToes  -2.08645e-008 3.77894e-005 6.81332e-007
Spine  -1.14229 1.18696 1.92598
Spine1  3.33341 0.679301 1.65072
HEad  -34.2736 20.5193 -6.35676
LeftShoulder1  7.23678 -13.2639 -37.0832
LeftArm  12.4813 23.8711 -29.2324
LeftForeArm  171.338 -62.9881 -160.802
LeftHand  -0.156372 -3.31787 2.33002
RightShoulder  4.19599 6.97536 34.1505
RightArm  20.9684 -28.0974 26.1411
RightForeArm  161.46 68.253 154.551
RightHand  -0.238462 9.63007 -2.23698
LeftUpLeg  -22.5092 14.3272 0.472974
LeftLeg  17.863 -6.60986 -1.73021
LeftFoot  8.83543 3.06918 -17.4651
LeftToes  1.24767e-006 1.47042e-008 1.32732e-009
